<?xml version="1.0" encoding="UTF-8"?>
<!DOCTYPE svg PUBLIC "-//W3C//DTD SVG 1.1//EN" "http://www.w3.org/Graphics/SVG/1.1/DTD/svg11.dtd">
<svg xmlns="http://www.w3.org/2000/svg" version="1.1" width="512px" height="512px"
     style="shape-rendering:geometricPrecision; text-rendering:geometricPrecision; image-rendering:optimizeQuality; fill-rule:evenodd; clip-rule:evenodd"
     xmlns:xlink="http://www.w3.org/1999/xlink">
    <g>
        <path style="opacity:0.998" fill="#fe9f40"
              d="M 224.5,-0.5 C 245.833,-0.5 267.167,-0.5 288.5,-0.5C 321.554,1.84263 354.221,7.34263 386.5,16C 405.06,22.1146 422.726,30.1146 439.5,40C 441.24,41.517 442.906,43.017 444.5,44.5C 446.343,132.458 423.176,213.125 375,286.5C 298.273,393.778 193.773,444.278 61.5,438C 51.0651,437.071 40.7318,435.571 30.5,433.5C 17.6862,407.221 9.18616,379.554 5,350.5C 2.90257,336.05 1.06923,321.717 -0.5,307.5C -0.5,280.167 -0.5,252.833 -0.5,225.5C 2.1803,191.758 8.01364,158.425 17,125.5C 24.006,99.153 36.006,75.4864 53,54.5C 71.8772,37.3048 93.7105,25.1381 118.5,18C 153.236,7.60054 188.57,1.43387 224.5,-0.5 Z"/>
    </g>
    <g>
        <path style="opacity:1" fill="#f49138"
              d="M 444.5,44.5 C 453.436,50.2684 460.936,57.6017 467,66.5C 485.317,97.4412 497.317,130.775 503,166.5C 506.899,189.52 509.732,212.52 511.5,235.5C 511.5,257.833 511.5,280.167 511.5,302.5C 509.255,339.233 502.421,375.233 491,410.5C 479.708,443.124 458.541,466.958 427.5,482C 398.525,493.744 368.525,501.744 337.5,506C 320.403,508.355 303.403,510.188 286.5,511.5C 263.833,511.5 241.167,511.5 218.5,511.5C 184.812,509.041 151.479,503.541 118.5,495C 93.3227,488.411 70.656,477.078 50.5,461C 42.4546,452.795 35.7879,443.628 30.5,433.5C 40.7318,435.571 51.0651,437.071 61.5,438C 193.773,444.278 298.273,393.778 375,286.5C 423.176,213.125 446.343,132.458 444.5,44.5 Z"/>
    </g>
    <g>
        <path style="opacity:1" fill="#fcfbfa"
              d="M 237.5,369.5 C 237.5,309.833 237.5,250.167 237.5,190.5C 236.209,190.263 235.209,190.596 234.5,191.5C 222.782,196.628 210.782,200.961 198.5,204.5C 198.5,191.167 198.5,177.833 198.5,164.5C 214.2,157.817 229.533,150.317 244.5,142C 258.163,141.5 271.829,141.333 285.5,141.5C 285.5,217.5 285.5,293.5 285.5,369.5C 269.5,369.5 253.5,369.5 237.5,369.5 Z"/>
    </g>
    <g>
        <path style="opacity:1" fill="#feb975"
              d="M 234.5,191.5 C 235.209,190.596 236.209,190.263 237.5,190.5C 237.5,250.167 237.5,309.833 237.5,369.5C 237.166,309.993 236.166,250.66 234.5,191.5 Z"/>
    </g>
</svg>
